28bc0ded5dc520d955caf29db80d35da *tests/data/fate/matroska-flac-extradata-update.matroska
1795 tests/data/fate/matroska-flac-extradata-update.matroska
#extradata 0:       34, 0x93650c81
#extradata 1:       34, 0x93650c81
#extradata 2:       34, 0x93650c81
#tb 0: 1/1000
#media_type 0: audio
#codec_id 0: flac
#sample_rate 0: 48000
#channel_layout_name 0: 5.1
#tb 1: 1/1000
#media_type 1: audio
#codec_id 1: flac
#sample_rate 1: 48000
#channel_layout_name 1: 5.1(side)
#tb 2: 1/1000
#media_type 2: audio
#codec_id 2: flac
#sample_rate 2: 48000
#channel_layout_name 2: 5.1
0,          0,          0,       96,       26, 0x4e160341
1,          0,          0,       96,       26, 0x4e160341
2,          0,          0,       96,       26, 0x4e160341
0,         96,         96,       96,       26, 0x4e17035c
1,         96,         96,       96,       26, 0x4e17035c
2,         96,         96,       96,       26, 0x4e17035c
0,        192,        192,       96,       26, 0x4de40383
1,        192,        192,       96,       26, 0x4de40383
2,        192,        192,       96,       26, 0x4de40383
0,        288,        288,       96,       26, 0x4e3903a2
1,        288,        288,       96,       26, 0x4e3903a2
2,        288,        288,       96,       26, 0x4e3903a2
0,        384,        384,       96,       26, 0x4f9a03d5
1,        384,        384,       96,       26, 0x4f9a03d5
2,        384,        384,       96,       26, 0x4f9a03d5
0,        480,        480,       96,       26, 0x501303e0
1,        480,        480,       96,       26, 0x501303e0
2,        480,        480,       96,       26, 0x501303e0
0,        576,        576,       96,       26, 0x5160042f
1,        576,        576,       96,       26, 0x5160042f
2,        576,        576,       96,       26, 0x5160042f
0,        672,        672,       96,       26, 0x50dd042e
1,        672,        672,       96,       26, 0x50dd042e
2,        672,        672,       96,       26, 0x50dd042e
